<?xml version="1.0" standalone="no"?>
<!DOCTYPE svg PUBLIC "-//W3C//DTD SVG 20010904//EN"
 "http://www.w3.org/TR/2001/REC-SVG-20010904/DTD/svg10.dtd">
<svg version="1.0" xmlns="http://www.w3.org/2000/svg"
 width="360.000000pt" height="360.000000pt" viewBox="0 0 360.000000 360.000000"
 preserveAspectRatio="xMidYMid meet">

<g transform="translate(0.000000,360.000000) scale(0.100000,-0.100000)"
fill="#000000" stroke="none">
<path d="M2015 2995 c-308 -58 -584 -232 -773 -487 l-57 -78 -345 0 c-387 0
-393 -1 -398 -62 -6 -67 0 -68 351 -68 265 0 308 -2 313 -15 4 -8 2 -21 -3
-28 -29 -38 -83 -255 -83 -335 0 -20 -4 -42 -8 -49 -6 -9 -107 -13 -409 -15
-389 -3 -403 -4 -417 -23 -21 -28 -20 -61 4 -85 19 -19 33 -20 419 -20 442 0
411 5 411 -67 0 -59 39 -230 70 -309 17 -41 30 -79 30 -84 0 -6 -118 -10 -318
-10 -356 0 -362 -1 -362 -64 0 -61 -2 -61 369 -59 185 1 350 -1 367 -5 24 -5
46 -26 91 -87 161 -218 430 -383 728 -447 81 -17 381 -17 460 1 348 77 626
270 808 562 207 332 235 776 73 1133 -169 371 -510 634 -906 701 -104 18 -320
18 -415 0z m260 -490 l25 -24 0 -351 c0 -246 -3 -358 -12 -373 -12 -23 -294
-347 -335 -385 -34 -32 -85 -30 -112 4 -43 54 -35 66 183 309 l126 140 0 329
c0 325 0 330 22 353 29 31 72 30 103 -2z"/>
</g>
</svg>
